<svg width="25" height="25" viewBox="0 0 25 25" fill="none" xmlns="http://www.w3.org/2000/svg">
<path d="M12.5 3.125C7.33032 3.125 3.125 7.33032 3.125 12.5C3.125 17.6697 7.33032 21.875 12.5 21.875C17.6697 21.875 21.875 17.6697 21.875 12.5C21.875 7.33032 17.6697 3.125 12.5 3.125ZM12.5 4.6875C16.8243 4.6875 20.3125 8.17566 20.3125 12.5C20.3125 16.8243 16.8243 20.3125 12.5 20.3125C8.17566 20.3125 4.6875 16.8243 4.6875 12.5C4.6875 8.17566 8.17566 4.6875 12.5 4.6875ZM11.7188 7.8125V14.0625H13.2812V7.8125H11.7188ZM11.7188 15.625V17.1875H13.2812V15.625H11.7188Z" fill="#273751"/>
</svg>
