<svg width="26" height="25" viewBox="0 0 26 25" fill="none" xmlns="http://www.w3.org/2000/svg">
<path d="M9.99078 1.5625C6.9787 1.5625 4.52203 4.01916 4.52203 7.03125C4.52203 8.91418 5.48334 10.5865 6.93903 11.5723C4.15277 12.7686 2.17828 15.5334 2.17828 18.75H3.74078C3.74078 15.2893 6.53009 12.5 9.99078 12.5C11.065 12.5 12.066 12.7808 12.9449 13.2568C12.0782 14.3311 11.5533 15.7043 11.5533 17.1875C11.5533 20.6299 14.3609 23.4375 17.8033 23.4375C21.2457 23.4375 24.0533 20.6299 24.0533 17.1875C24.0533 13.7451 21.2457 10.9375 17.8033 10.9375C16.4391 10.9375 15.1696 11.3861 14.1412 12.1338C13.7963 11.9171 13.421 11.734 13.0425 11.5723C14.4982 10.5865 15.4595 8.91418 15.4595 7.03125C15.4595 4.01916 13.0029 1.5625 9.99078 1.5625ZM9.99078 3.125C12.1575 3.125 13.897 4.8645 13.897 7.03125C13.897 9.198 12.1575 10.9375 9.99078 10.9375C7.82404 10.9375 6.08453 9.198 6.08453 7.03125C6.08453 4.8645 7.82404 3.125 9.99078 3.125ZM17.8033 12.5C20.4003 12.5 22.4908 14.5905 22.4908 17.1875C22.4908 19.7845 20.4003 21.875 17.8033 21.875C15.2062 21.875 13.1158 19.7845 13.1158 17.1875C13.1158 14.5905 15.2062 12.5 17.8033 12.5ZM17.022 14.0625V16.4062H14.6783V17.9688H17.022V20.3125H18.5845V17.9688H20.9283V16.4062H18.5845V14.0625H17.022Z" fill="#273751"/>
</svg>
