<svg width="25" height="25" viewBox="0 0 25 25" fill="none" xmlns="http://www.w3.org/2000/svg">
<path d="M11.7188 1.5625C10.5896 1.5625 9.64355 2.37427 9.42383 3.44238C8.73413 3.63159 8.09937 3.93066 7.49512 4.27246C7.12891 4.04663 6.70776 3.90625 6.25 3.90625C4.96216 3.90625 3.90625 4.96216 3.90625 6.25C3.90625 6.70776 4.04663 7.12891 4.27246 7.49512C3.93066 8.09937 3.63159 8.73413 3.44238 9.42383C2.37427 9.64355 1.5625 10.5896 1.5625 11.7188C1.5625 12.8479 2.38037 13.7939 3.44238 14.0137C3.6377 14.7034 3.93066 15.3381 4.27246 15.9424C4.04663 16.3086 3.90625 16.7297 3.90625 17.1875C3.90625 18.4753 4.96216 19.5312 6.25 19.5312C6.69556 19.5312 7.1106 19.397 7.4646 19.1772C8.07495 19.5251 8.72803 19.8059 9.42383 19.9951V20.0012C9.64355 21.0632 10.5957 21.875 11.7188 21.875C12.8479 21.875 13.7939 21.0571 14.0137 19.9951C14.7034 19.7998 15.3625 19.5312 15.9729 19.1833C16.333 19.397 16.7419 19.5312 17.1875 19.5312C18.4753 19.5312 19.5312 18.4753 19.5312 17.1875C19.5312 16.7297 19.3909 16.3086 19.165 15.9424C19.5068 15.3381 19.8059 14.7034 19.9951 14.0137C21.0632 13.7939 21.875 12.8479 21.875 11.7188C21.875 10.5835 21.0449 9.62524 19.9707 9.42383C19.7754 8.73413 19.5129 8.08105 19.1711 7.48291C19.397 7.1228 19.5312 6.70166 19.5312 6.25C19.5312 4.96216 18.4753 3.90625 17.1875 3.90625C16.7297 3.90625 16.3086 4.04663 15.9424 4.27246C15.3381 3.93066 14.7034 3.63159 14.0137 3.44238C13.7939 2.37427 12.8479 1.5625 11.7188 1.5625ZM11.7188 3.125C12.1582 3.125 12.5 3.4668 12.5 3.90625C12.5 4.3457 12.1582 4.6875 11.7188 4.6875C11.2793 4.6875 10.9375 4.3457 10.9375 3.90625C10.9375 3.4668 11.2793 3.125 11.7188 3.125ZM9.67407 5.02319C10.0769 5.74951 10.8398 6.25 11.7188 6.25C12.5977 6.25 13.3606 5.74951 13.7634 5.02319C14.1846 5.15137 14.5874 5.31616 14.978 5.51758C14.8987 5.74951 14.8438 5.99365 14.8438 6.25C14.8438 7.53784 15.8997 8.59375 17.1875 8.59375C17.4438 8.59375 17.6941 8.53882 17.926 8.45947C18.1274 8.84399 18.2922 9.24683 18.4204 9.66797C17.6941 10.0708 17.1875 10.8337 17.1875 11.7188C17.1875 12.5977 17.688 13.3606 18.4143 13.7634C18.2861 14.1846 18.1213 14.5874 17.9199 14.978C17.688 14.8987 17.4438 14.8438 17.1875 14.8438C15.8997 14.8438 14.8438 15.8997 14.8438 17.1875C14.8438 17.4438 14.8926 17.6819 14.9719 17.9138C14.5874 18.1152 14.1846 18.28 13.7573 18.4082C13.3606 17.688 12.5977 17.1875 11.7188 17.1875C10.8398 17.1875 10.0769 17.688 9.68018 18.4082C9.25293 18.28 8.8501 18.1152 8.46558 17.9138C8.54492 17.6819 8.59375 17.4438 8.59375 17.1875C8.59375 15.8997 7.53784 14.8438 6.25 14.8438C5.99365 14.8438 5.74951 14.8987 5.51758 14.978C5.31616 14.5935 5.15137 14.1907 5.01709 13.7695C5.74951 13.3667 6.25 12.5977 6.25 11.7188C6.25 10.8398 5.74951 10.0769 5.02319 9.67407C5.15137 9.25293 5.31616 8.8501 5.51758 8.46558C5.74951 8.54492 5.99365 8.59375 6.25 8.59375C7.53784 8.59375 8.59375 7.53784 8.59375 6.25C8.59375 5.99365 8.54492 5.74951 8.46558 5.51758C8.8501 5.31616 9.25293 5.15137 9.67407 5.02319ZM6.25 5.46875C6.68945 5.46875 7.03125 5.81055 7.03125 6.25C7.03125 6.68945 6.68945 7.03125 6.25 7.03125C5.81055 7.03125 5.46875 6.68945 5.46875 6.25C5.46875 5.81055 5.81055 5.46875 6.25 5.46875ZM17.1875 5.46875C17.627 5.46875 17.9688 5.81055 17.9688 6.25C17.9688 6.68945 17.627 7.03125 17.1875 7.03125C16.748 7.03125 16.4062 6.68945 16.4062 6.25C16.4062 5.81055 16.748 5.46875 17.1875 5.46875ZM3.90625 10.9375C4.3457 10.9375 4.6875 11.2793 4.6875 11.7188C4.6875 12.1582 4.3457 12.5 3.90625 12.5C3.4668 12.5 3.125 12.1582 3.125 11.7188C3.125 11.2793 3.4668 10.9375 3.90625 10.9375ZM19.5312 10.9375C19.9707 10.9375 20.3125 11.2793 20.3125 11.7188C20.3125 12.1582 19.9707 12.5 19.5312 12.5C19.0918 12.5 18.75 12.1582 18.75 11.7188C18.75 11.2793 19.0918 10.9375 19.5312 10.9375ZM6.25 16.4062C6.68945 16.4062 7.03125 16.748 7.03125 17.1875C7.03125 17.627 6.68945 17.9688 6.25 17.9688C5.81055 17.9688 5.46875 17.627 5.46875 17.1875C5.46875 16.748 5.81055 16.4062 6.25 16.4062ZM17.1875 16.4062C17.627 16.4062 17.9688 16.748 17.9688 17.1875C17.9688 17.627 17.627 17.9688 17.1875 17.9688C16.748 17.9688 16.4062 17.627 16.4062 17.1875C16.4062 16.748 16.748 16.4062 17.1875 16.4062ZM11.7188 18.75C12.1582 18.75 12.5 19.0918 12.5 19.5312C12.5 19.9707 12.1582 20.3125 11.7188 20.3125C11.2793 20.3125 10.9375 19.9707 10.9375 19.5312C10.9375 19.0918 11.2793 18.75 11.7188 18.75Z" fill="#273751"/>
</svg>
