<svg width="51" height="51" viewBox="0 0 51 51" fill="none" xmlns="http://www.w3.org/2000/svg">
<path d="M25.5 4.78125C24.5039 4.78125 23.514 5.11743 22.6611 5.72754L20.0215 7.57031L16.9834 7.96875H16.9336L16.8838 8.01855C14.8542 8.47302 13.2543 10.073 12.7998 12.1025L12.75 12.1523V12.2021L12.3516 15.29L10.5088 17.6807L10.459 17.7305V17.7803C9.3446 19.5608 9.2948 21.858 10.5088 23.5576L12.4014 26.1973L12.8994 28.9365L7.76953 36.7559L6.12598 39.1963H13.7461L15.5889 43.4795L16.7344 46.2188L18.3779 43.7285L23.4082 36.1582C24.7592 36.7123 26.2844 36.7621 27.5918 36.1582L32.6221 43.7285L34.2656 46.2188L35.4111 43.4795L37.2539 39.1963H44.874L43.2305 36.7559L38.25 29.1855L38.6484 26.1973L40.4912 23.5576L40.541 23.5078V23.458C41.6554 21.6775 41.7052 19.4301 40.4912 17.7305L38.6484 15.0908L38.0508 12.1025H38.1006C38.0944 12.0652 38.057 12.0403 38.0508 12.0029C37.7644 9.91736 36.1146 8.224 34.0166 7.96875H33.9668L30.9785 7.57031L28.3389 5.72754C27.486 5.11743 26.4961 4.78125 25.5 4.78125ZM25.5 8.01855C25.8673 8.01855 26.2284 8.13062 26.4961 8.31738L29.335 10.3594L29.6836 10.6084L30.082 10.6582L33.5684 11.1562H33.6182C34.3341 11.2372 34.8322 11.7352 34.9131 12.4512V12.5508L35.5605 16.0869L35.6104 16.4355L35.8594 16.7344L37.9014 19.5732C38.2811 20.1024 38.3309 20.9989 37.8516 21.7646L35.6104 24.9023L35.5605 25.3008L35.0625 28.7871V28.8369C35.0314 29.0984 34.9442 29.3412 34.8135 29.5342L34.7139 29.584V29.6338C34.4835 29.9077 34.166 30.0883 33.7676 30.1318H33.668L30.0322 30.7793L29.6338 30.8291L29.335 31.0781L26.4961 33.1201C25.9669 33.4999 25.0206 33.5497 24.2549 33.0703L21.665 31.0781L21.3662 30.8291L20.918 30.7793L17.4316 30.2812H17.3818C16.89 30.2252 16.5103 29.97 16.2861 29.584C16.1865 29.4097 16.1118 29.2042 16.0869 28.9863V28.8867L15.4395 25.251L15.3896 24.8525L15.1406 24.5537L13.0986 21.7148C12.7189 21.1857 12.6691 20.2394 13.1484 19.4736L15.1406 16.8838L15.3896 16.585L15.4395 16.1367L15.8877 12.7998C15.8939 12.7749 15.9313 12.7749 15.9375 12.75C16.1367 11.9718 16.7531 11.3555 17.5312 11.1562C17.5562 11.15 17.5562 11.1127 17.5811 11.1064L20.918 10.6582L21.3164 10.6084L21.665 10.3594L24.5039 8.31738C24.7716 8.13062 25.1327 8.01855 25.5 8.01855ZM36.5068 32.2734L38.9473 36.0088H35.1123L34.7139 37.0049L33.6182 39.5449L30.2314 34.3652L30.9785 33.8174L34.1162 33.2695V33.3193C34.1536 33.3131 34.1785 33.2758 34.2158 33.2695C35.075 33.1512 35.8531 32.7902 36.5068 32.2734ZM14.4932 32.3232C15.1718 32.9333 16.0371 33.3567 16.9834 33.4688C17.0021 33.4688 17.0145 33.4688 17.0332 33.4688L20.0713 33.8672L20.7686 34.415L17.3818 39.5449L16.2861 37.0049L15.8877 36.0088H12.0527L14.4932 32.3232Z" fill="#CFA32B"/>
</svg>
