<svg width="19" height="19" viewBox="0 0 19 19" fill="none" xmlns="http://www.w3.org/2000/svg">
<path d="M17.3125 2.46869L17.0775 2.2337C15.75 0.750547 13.7969 0.280576 13.7969 0.280576C11.4531 -0.421328 7.78186 1.14117 4.50122 4.34247C1.76685 6.9212 0.125 10.0462 0.125 12.39C0.125 12.7043 0.204346 13.0156 0.204346 13.3268C0.359985 14.8893 1.37622 16.5312 2.23377 17.3124C3.32935 18.405 4.73316 18.9543 6.29566 18.9543C8.87439 18.9543 11.9231 17.4681 14.7338 14.813C19.11 10.5162 20.2025 5.43805 17.3125 2.46869ZM4.8125 13.9525C4.8125 12.9362 5.90503 10.8275 8.24878 8.4837C10.5162 6.2193 12.86 5.59369 13.9525 5.3587C13.4062 6.84491 12.2344 8.63934 10.5162 10.3605C8.87439 11.923 7.00061 13.1712 5.35876 13.7968C5.20312 13.8762 4.96814 13.8762 4.8125 13.9525ZM5.59375 5.43805C8.17249 2.85931 10.9069 1.60809 12.625 1.60809C13.1713 1.60809 13.6412 1.76678 13.9525 2.07806C14.2668 2.38934 14.4225 3.01495 14.3431 3.71991C13.4062 3.7962 10.2019 4.34247 7.15625 7.39117C5.20312 9.3443 3.17066 12.155 3.32935 14.1081C2.85938 14.1081 2.3894 13.9525 2.15747 13.7175C1.99878 13.5618 1.84314 13.3268 1.76685 13.0156C1.76685 13.0156 1.6875 12.6249 1.6875 12.39C1.76685 10.4368 3.25 7.70245 5.59375 5.43805ZM13.6412 13.6412C9.89062 17.3918 5.59375 18.405 3.32935 16.2199C3.17066 16.0612 3.01501 15.9056 2.85938 15.6706C3.01501 15.7499 3.25 15.7499 3.48499 15.7499C4.18689 15.7499 5.04749 15.5943 5.90503 15.28C7.78186 14.5781 9.81128 13.2505 11.6088 11.4531C14.3431 8.71869 15.9056 5.59369 15.9056 3.32928L15.985 3.40558L16.22 3.56122C18.405 5.82867 17.3125 10.0462 13.6412 13.6412Z" fill="#AAAAAA"/>
</svg>
