<svg width="25" height="25" viewBox="0 0 25 25" fill="none" xmlns="http://www.w3.org/2000/svg">
<rect x="0.251953" y="0.5" width="24" height="24" rx="2" fill="white"/>
<path d="M22.0575 10.5415H21.252V10.5H12.252V14.5H17.9035C17.079 16.8285 14.8635 18.5 12.252 18.5C8.93845 18.5 6.25195 15.8135 6.25195 12.5C6.25195 9.1865 8.93845 6.5 12.252 6.5C13.7815 6.5 15.173 7.077 16.2325 8.0195L19.061 5.191C17.275 3.5265 14.886 2.5 12.252 2.5C6.72945 2.5 2.25195 6.9775 2.25195 12.5C2.25195 18.0225 6.72945 22.5 12.252 22.5C17.7745 22.5 22.252 18.0225 22.252 12.5C22.252 11.8295 22.183 11.175 22.0575 10.5415Z" fill="#FFC107"/>
<path d="M3.40479 7.8455L6.69028 10.255C7.57929 8.054 9.73229 6.5 12.2518 6.5C13.7813 6.5 15.1728 7.077 16.2323 8.0195L19.0608 5.191C17.2748 3.5265 14.8858 2.5 12.2518 2.5C8.41079 2.5 5.07979 4.6685 3.40479 7.8455Z" fill="#FF3D00"/>
<path d="M12.2521 22.5C14.8351 22.5 17.1821 21.5115 18.9566 19.904L15.8616 17.285C14.8576 18.0455 13.6096 18.5 12.2521 18.5C9.65111 18.5 7.44261 16.8415 6.61061 14.527L3.34961 17.0395C5.00461 20.278 8.36561 22.5 12.2521 22.5Z" fill="#4CAF50"/>
<path d="M22.0575 10.5415H21.252V10.5H12.252V14.5H17.9035C17.5075 15.6185 16.788 16.583 15.86 17.2855C15.8605 17.285 15.861 17.285 15.8615 17.2845L18.9565 19.9035C18.7375 20.1025 22.252 17.5 22.252 12.5C22.252 11.8295 22.183 11.175 22.0575 10.5415Z" fill="#1976D2"/>
</svg>
