<svg width="25" height="25" viewBox="0 0 25 25" fill="none" xmlns="http://www.w3.org/2000/svg">
<path d="M9.4531 2L9.31248 2.26562L8.60935 3.5625C8.26756 4.20312 7.73826 4.64648 7.03123 4.8125L3.87498 5.60938C2.71482 5.91406 1.88279 6.98828 1.99998 8.1875C1.99998 8.19336 1.99998 8.19727 1.99998 8.20312C2.51365 16.0469 6.5156 22.75 6.5156 22.75L6.67185 23H18.2969L18.4375 22.75C18.4375 22.75 22.3926 15.7383 22.9531 8.1875V8.17188C23.0156 6.97852 22.1992 5.9375 21.0781 5.625V5.60938L17.9219 4.8125C17.2676 4.64844 16.6777 4.19922 16.3437 3.57812V3.5625L15.5625 2H9.4531ZM10.0469 3H14.9375L15.4531 4.03125C15.7969 4.67578 16.334 5.19336 16.9687 5.51562C16.6875 7.42188 14.9316 9.5 12.5 9.5C10.0547 9.5 8.29685 7.39844 8.03123 5.48438C8.65427 5.1582 9.15232 4.65234 9.48435 4.03125L10.0469 3ZM7.0781 5.82812C7.47263 8.01758 9.31052 10.1875 11.9219 10.4688L10.3437 12.0469C10.1777 12.2148 10.1523 12.4746 10.2812 12.6719L12.0781 15.4219C12.1699 15.5664 12.3281 15.6543 12.5 15.6543C12.6719 15.6543 12.8301 15.5664 12.9219 15.4219L14.7187 12.6719C14.8476 12.4746 14.8222 12.2148 14.6562 12.0469L13.0781 10.4688C15.6836 10.1875 17.5215 8.02734 17.9219 5.84375L20.8125 6.57812H20.8281C21.4941 6.76953 21.9824 7.41211 21.9531 8.10938C21.9531 8.11523 21.9531 8.11914 21.9531 8.125C21.4258 15.1621 17.8789 21.623 17.6719 22H7.24998C6.87693 21.3496 3.46482 15.2695 2.99998 8.125V8.09375C2.92771 7.39844 3.3906 6.77148 4.12498 6.57812L7.0781 5.82812ZM12.5 11.3125L13.6562 12.4531L12.5 14.2344L11.3437 12.4531L12.5 11.3125Z" fill="#273751"/>
</svg>
