<svg width="226" height="192" viewBox="0 0 226 192" fill="none" xmlns="http://www.w3.org/2000/svg">
<g clip-path="url(#clip0)">
<path d="M79.6161 141.709C75.485 141.709 71.4176 142.729 67.7744 144.68C64.1312 146.63 61.0247 149.45 58.7303 152.89C56.4359 156.33 55.0244 160.284 54.621 164.401C54.2176 168.518 54.8346 172.671 56.4174 176.493C58.0003 180.314 60.5 183.685 63.6951 186.307C66.8902 188.93 70.682 190.722 74.7344 191.526C78.7868 192.33 82.9747 192.12 86.9268 190.916C90.879 189.711 94.4733 187.549 97.3913 184.62C100.903 181.104 103.294 176.624 104.263 171.747C105.232 166.87 104.735 161.814 102.834 157.22C100.934 152.625 97.7156 148.699 93.5865 145.936C89.4574 143.173 84.6029 141.699 79.637 141.699L79.6161 141.709ZM79.6161 186.665C76.3572 186.674 73.1465 185.878 70.2689 184.346C67.3914 182.814 64.9361 180.594 63.1212 177.884C61.3063 175.173 60.1879 172.056 59.8654 168.809C59.5428 165.561 60.026 162.284 61.2721 159.269C62.5183 156.254 64.4887 153.593 67.0085 151.523C69.5283 149.454 72.5195 148.04 75.7163 147.406C78.9132 146.772 82.2169 146.939 85.3339 147.891C88.451 148.844 91.285 150.552 93.5842 152.865C96.3398 155.636 98.2147 159.162 98.973 162.999C99.7314 166.836 99.3391 170.811 97.8457 174.425C96.3523 178.039 93.8245 181.129 90.5806 183.307C87.3367 185.485 83.5217 186.654 79.6161 186.665Z" fill="#CFA32B"/>
<path d="M153.342 181.7C150.5 184.222 146.99 185.868 143.236 186.44C139.482 187.012 135.642 186.486 132.179 184.926C128.716 183.365 125.777 180.836 123.715 177.643C121.654 174.45 120.557 170.728 120.557 166.925C120.557 163.122 121.654 159.4 123.715 156.207C125.777 153.014 128.716 150.485 132.179 148.924C135.642 147.364 139.482 146.838 143.236 147.41C146.99 147.982 150.5 149.628 153.342 152.15L154.248 152.953L158.201 149.344L157.107 148.348C153.516 145.078 149.053 142.923 144.261 142.145C139.469 141.367 134.555 141.999 130.115 143.966C125.676 145.932 121.902 149.147 119.254 153.221C116.605 157.295 115.195 162.051 115.195 166.912C115.195 171.773 116.605 176.529 119.254 180.603C121.902 184.677 125.676 187.892 130.115 189.858C134.555 191.825 139.469 192.457 144.261 191.679C149.053 190.901 153.516 188.746 157.107 185.476L158.211 184.469L154.238 180.902L153.342 181.7Z" fill="#CFA32B"/>
<path d="M205.444 181.7C202.601 184.222 199.092 185.868 195.338 186.44C191.584 187.012 187.744 186.486 184.281 184.926C180.818 183.365 177.879 180.836 175.817 177.643C173.755 174.45 172.658 170.728 172.658 166.925C172.658 163.122 173.755 159.4 175.817 156.207C177.879 153.014 180.818 150.485 184.281 148.924C187.744 147.364 191.584 146.838 195.338 147.41C199.092 147.982 202.601 149.628 205.444 152.15L206.345 152.953L210.303 149.344L209.209 148.348C205.618 145.078 201.155 142.923 196.363 142.145C191.571 141.367 186.657 141.999 182.217 143.966C177.778 145.932 174.004 149.147 171.355 153.221C168.706 157.295 167.296 162.051 167.296 166.912C167.296 171.773 168.706 176.529 171.355 180.603C174.004 184.677 177.778 187.892 182.217 189.858C186.657 191.825 191.571 192.457 196.363 191.679C201.155 190.901 205.618 188.746 209.209 185.476L210.313 184.469L206.339 180.902L205.444 181.7Z" fill="#CFA32B"/>
<path d="M226 142.372H220.703V191.447H226V142.372Z" fill="#CFA32B"/>
<path d="M43.0709 151.342V142.377H38.2014L21.6084 171.17L4.98935 142.377H0V144.28V151.211V191.447H5.29663V153.464L21.6084 181.689L37.8941 153.475V191.447H43.1907V151.342H43.0709Z" fill="#CFA32B"/>
<path d="M134.202 81.2956C135.061 82.2813 134.968 82.3751 133.994 81.5042C133.02 80.6332 129.265 77.2537 127.817 75.9291C126.369 74.6044 124.401 72.7999 123.442 71.9133C122.484 71.0267 118.786 67.5951 117.354 66.2548C115.922 64.9144 115.271 63.595 115.974 63.3133C116.677 63.0317 117.323 65.3525 117.479 68.4712C117.635 71.59 117.844 75.8456 117.937 77.9265C118.031 80.0074 118.38 88.0441 118.5 91.1629C118.62 94.2816 118.802 99.3873 118.906 102.511C119.01 105.635 118.104 107.784 116.89 107.294C115.677 106.803 116.479 104.561 118.666 102.308C120.854 100.055 128.442 92.2998 130.645 90.0624C132.848 87.8251 140.473 80.1013 142.686 77.8692C144.9 75.637 152.139 68.4504 153.811 66.7867C155.482 65.123 158.227 62.4215 159.904 60.7683C161.581 59.1151 163.357 58.7552 163.852 59.9651C164.347 61.1751 162.138 62.0513 158.951 61.9626L148.014 61.561L138.483 61.1751C136.4 61.0864 128.452 60.6536 125.359 60.518C122.265 60.3824 119.968 59.6731 120.25 58.9951C120.531 58.3171 121.864 58.9273 123.208 60.3511L127.286 64.6641C128.187 65.6081 131.619 69.3109 132.952 70.7451C134.285 72.1793 136.077 74.1507 136.978 75.1207C137.879 76.0907 139.353 77.9526 138.358 77.1025C137.363 76.2524 133.546 72.9303 132.072 71.6578C130.598 70.3852 128.593 68.5964 127.619 67.7307C126.645 66.8649 122.875 63.5063 121.416 62.1973L117.411 58.6196C116.672 57.9573 116.89 57.3992 117.932 57.3836L125.421 57.2636C128.546 57.2115 132.739 57.1489 134.796 57.128C136.853 57.1072 144.905 57.0342 148.087 57.0185H159.024H167.82C169.471 57.0185 169.872 58.0146 168.711 59.2142L163.612 64.4816C161.977 66.1713 159.29 68.9354 157.644 70.6199C155.998 72.3045 152.847 75.5171 150.639 77.7544C148.431 79.9918 140.816 87.7156 138.603 89.9425C136.39 92.1694 128.708 99.815 126.463 102.026C124.218 104.238 117.359 111.012 116.14 112.201C114.922 113.39 113.943 112.989 113.943 111.315V102.595C113.943 99.4656 113.943 94.3598 113.969 91.2411C113.995 88.1224 114.016 83.8563 114.031 81.7754C114.047 79.6945 114.177 71.6473 114.234 68.5286C114.292 65.4099 114.344 62.0252 114.359 61.0186C114.375 60.0121 114.927 59.7826 115.583 60.4971L119.172 64.4503C120.489 65.9001 122.296 67.8767 123.161 68.8467C124.026 69.8168 127.406 73.577 128.708 75.0373C130.01 76.4975 133.327 80.3151 134.202 81.2956Z" fill="#CFA32B"/>
<path d="M87.7512 35.5994C86.8762 34.6294 86.9699 34.5564 87.9595 35.3856C88.949 36.2148 92.7665 39.5578 94.2352 40.846C95.7039 42.1341 97.7038 43.9125 98.6777 44.7835L104.87 50.3221L108.844 53.8893C109.568 54.5413 109.339 55.0941 108.323 55.1202L100.829 55.2923C97.7038 55.3705 93.4592 55.4591 91.376 55.5009C89.2927 55.5426 81.2671 55.6678 78.1474 55.7043C75.0278 55.7408 69.9291 55.7877 66.8094 55.8086L58.1015 55.8607C56.4297 55.8607 56.0182 54.8855 57.2005 53.6651L63.3148 47.3442C65.497 45.0912 73.0852 37.3361 75.2934 35.0987C77.5016 32.8614 85.1158 25.1428 87.3293 22.9107C89.5427 20.6785 96.782 13.4919 98.4538 11.8282C100.126 10.1646 102.87 7.46305 104.547 5.80981L109.755 0.67799C110.974 -0.495445 111.974 -0.1043 111.974 1.56459C111.974 3.23347 112.021 7.18664 112.047 10.3732L112.099 21.3252C112.099 24.5118 112.099 28.8143 112.099 30.8796C112.099 32.9448 112.026 40.9346 111.995 44.0325C111.964 47.1304 111.927 50.5099 111.917 51.5373C111.906 52.5647 111.354 52.7941 110.693 52.0588L107.089 48.0743C105.776 46.6193 103.964 44.6375 103.105 43.6726C102.245 42.7078 98.8756 38.932 97.5736 37.4613C96.2716 35.9906 94.506 33.9931 93.6467 33.0074C92.7874 32.0217 91.3395 30.1182 92.3134 30.9943C93.2874 31.8705 97.032 35.2552 98.4746 36.5747C99.9173 37.8941 101.886 39.7038 102.844 40.6008L108.922 46.2646C110.354 47.605 110.974 48.9348 110.297 49.2217C109.62 49.5085 108.922 47.2086 108.735 44.1107C108.547 41.0129 108.318 36.8094 108.214 34.7232C108.11 32.6371 107.693 24.6108 107.552 21.4295L107.084 10.4775C106.948 7.29095 107.834 5.07967 109.047 5.55948C110.261 6.03928 109.906 7.8229 108.266 9.51787C106.625 11.2128 103.964 13.9769 102.318 15.6458C100.672 17.3147 97.5215 20.5586 95.3081 22.7959C93.0947 25.0333 85.4908 32.7519 83.2774 34.984C81.064 37.2161 73.382 44.8565 71.1373 47.0626C68.8926 49.2686 62.5961 54.0927 62.1065 52.888C61.6169 51.6833 63.7523 50.755 66.8719 50.8436C69.9915 50.9323 75.0851 51.0731 78.2047 51.1774L87.647 51.4903C89.7302 51.5633 97.7559 51.9128 100.87 52.0484C103.985 52.184 106.308 52.8515 106.032 53.5243C105.756 54.197 104.427 53.5869 103.084 52.1579L99.011 47.8396C98.1153 46.8905 94.6831 43.1876 93.3551 41.7482C92.027 40.3088 88.6313 36.5695 87.7512 35.5994Z" fill="#CFA32B"/>
<path d="M138.056 35.3856C139.035 34.5199 139.129 34.6137 138.264 35.5994C137.4 36.5851 134.046 40.3557 132.733 41.8108C131.421 43.2659 129.609 45.2477 128.749 46.2125L123.135 52.3404C121.807 53.7798 120.489 54.4265 120.203 53.7381C119.916 53.0497 122.229 52.3769 125.343 52.1735C128.458 51.9701 132.702 51.772 134.78 51.652C136.858 51.5321 144.879 51.1305 147.998 51.0157C151.118 50.901 156.212 50.6663 159.326 50.5464C162.44 50.4264 164.597 51.3234 164.117 52.5334C163.638 53.7433 161.388 52.9663 159.123 50.7915C156.857 48.6167 149.071 41.0963 146.827 38.9059C144.582 36.7155 136.827 29.1221 134.593 26.9108C132.358 24.6995 125.13 17.5233 123.463 15.8336C121.796 14.1438 119.078 11.4319 117.422 9.75778C115.765 8.08368 115.39 6.31049 116.594 5.81503C117.797 5.31958 118.708 7.52043 118.62 10.707L118.276 21.659C118.166 24.8455 118.015 29.1429 117.942 31.2082C117.87 33.2734 117.505 41.2528 117.359 44.3506C117.213 47.4485 116.541 49.7536 115.864 49.4772C115.187 49.2008 115.786 47.8605 117.203 46.5045L121.484 42.3949C122.427 41.4927 126.104 38.0349 127.531 36.6894C128.958 35.3439 130.916 33.5237 131.874 32.6371C132.832 31.7506 134.692 30.2486 133.848 31.2447C133.004 32.2408 129.734 36.0844 128.447 37.5708C127.161 39.0571 125.411 41.0702 124.552 42.0507C123.692 43.0312 120.385 46.8227 119.062 48.309L115.51 52.3352C114.854 53.081 114.297 52.8567 114.276 51.8137C114.255 50.7706 114.177 47.4172 114.109 44.3141C114.042 41.211 113.963 37.0128 113.927 34.9266C113.891 32.8405 113.776 24.7986 113.745 21.6121L113.667 10.66C113.667 7.47349 113.641 3.50989 113.635 1.85143C113.63 0.192979 114.614 -0.234673 115.828 0.949192L121.109 6.02365C122.807 7.65602 125.583 10.3262 127.275 11.969C128.968 13.6119 132.187 16.741 134.436 18.9366C136.686 21.1323 144.436 28.7205 146.67 30.9318C148.905 33.143 156.566 40.8043 158.805 43.026C161.045 45.2477 167.831 52.1109 169.023 53.3105C170.216 54.51 169.82 55.5113 168.148 55.5217L159.441 55.5687C156.316 55.5687 151.222 55.6 148.103 55.6H138.645C136.561 55.6 128.536 55.5009 125.416 55.4644L117.916 55.3809C116.911 55.3809 116.677 54.8177 117.396 54.1605L121.349 50.5255L125.713 46.5045C126.671 45.6179 130.4 42.2332 131.874 40.919C133.348 39.6047 137.077 36.2513 138.056 35.3856Z" fill="#CFA32B"/>
<path d="M91.9697 81.5563C91.0062 82.4377 90.9281 82.3491 91.7562 81.353C92.5843 80.3568 95.8862 76.5184 97.1726 75.0373C98.459 73.5561 100.214 71.543 101.079 70.5626L106.578 64.3042L110.12 60.3146C110.766 59.5844 111.318 59.793 111.349 60.8361C111.38 61.8791 111.474 65.2169 111.563 68.3409C111.651 71.4648 111.771 75.7205 111.818 77.8013C111.865 79.8822 112.047 87.9242 112.099 91.0481C112.151 94.1721 112.229 99.2778 112.266 102.402C112.302 105.526 112.349 109.448 112.365 111.122C112.38 112.796 111.401 113.208 110.177 112.034L103.834 105.948C101.558 103.784 93.7873 96.2217 91.5374 94.026C89.2875 91.8304 81.5379 84.2422 79.3036 82.0309C77.0694 79.8197 69.8405 72.6122 68.1739 70.9485C66.5073 69.2848 63.7887 66.552 62.1325 64.8779C60.4764 63.2038 58.1536 60.8622 56.9713 59.6627C55.7891 58.4631 56.1797 57.4775 57.8359 57.4514L66.6323 57.3314L77.5693 57.2167L87.1106 57.1541C89.1938 57.1541 97.1518 57.1541 100.251 57.1906C103.349 57.2271 106.714 57.1906 107.74 57.2219C108.766 57.2532 109 57.7799 108.261 58.4475L104.302 62.0982L99.9329 66.1087C98.9694 66.9953 95.2456 70.3748 93.7613 71.6838L89.3344 75.6422C88.3553 76.508 86.4648 77.9682 87.3293 76.993C88.1938 76.0177 91.5531 72.2419 92.8655 70.7868C94.1779 69.3318 95.9904 67.3552 96.8653 66.3904L102.49 60.2676C103.818 58.8282 105.141 58.1815 105.433 58.8804C105.724 59.5792 103.433 60.2676 100.339 60.4449C97.2455 60.6223 93.0478 60.9039 90.9646 61.0238C88.8813 61.1438 80.8661 61.5923 77.6891 61.7592L66.7521 62.2807C63.57 62.4267 61.3617 61.5558 61.8357 60.3406C62.3096 59.1255 64.0908 59.4697 65.7886 61.0969C67.4865 62.724 70.2624 65.4047 71.955 67.0423C73.6476 68.6799 76.8923 71.856 79.163 74.0568C81.4337 76.2576 89.1625 83.8406 91.3968 86.0519C93.6311 88.2632 101.292 95.9192 103.526 98.1461C105.761 100.373 110.594 106.652 109.391 107.153C108.188 107.654 107.261 105.515 107.308 102.391C107.354 99.2674 107.495 94.1616 107.578 91.0429C107.662 87.9242 107.781 83.6633 107.844 81.5824C107.906 79.5015 108.209 71.4596 108.328 68.3409C108.448 65.2221 109.099 62.8909 109.776 63.1621C110.453 63.4333 109.844 64.7736 108.427 66.1244L104.136 70.2236C103.193 71.1258 99.511 74.5835 98.0788 75.9239C96.6466 77.2642 92.9332 80.675 91.9697 81.5563Z" fill="#CFA32B"/>
</g>
<defs>
<clipPath id="clip0">
<rect width="226" height="192" fill="white"/>
</clipPath>
</defs>
</svg>
