<svg width="25" height="25" viewBox="0 0 25 25" fill="none" xmlns="http://www.w3.org/2000/svg">
<g clip-path="url(#clip0)">
<path d="M3.125 3.90625V21.0938H15.0803L18.7515 25L23.9685 19.4473C25.3505 17.9762 25.3431 15.7339 23.9517 14.3417C23.384 13.7734 22.6578 13.4329 21.875 13.3286V3.90625H3.125ZM4.6875 5.46875H20.3125V13.4628C19.7621 13.6351 19.2519 13.9218 18.8324 14.3417L18.7515 14.4241L18.6691 14.3417C17.9855 13.6574 17.0759 13.2812 16.1087 13.2812C15.1415 13.2812 14.2334 13.6574 13.5498 14.3417C13.3933 14.4982 13.2608 14.6681 13.1393 14.8438H9.375V16.4062H12.5473C12.4076 17.4686 12.7255 18.5887 13.533 19.4473L13.6124 19.5312H4.6875V5.46875ZM16.1087 13.2812H18.75V11.7188H9.375V13.2812H16.1087ZM6.25 8.59375V10.1562H7.8125V8.59375H6.25ZM9.375 8.59375V10.1562H18.75V8.59375H9.375ZM6.25 11.7188V13.2812H7.8125V11.7188H6.25ZM6.25 14.8438V16.4062H7.8125V14.8438H6.25ZM16.1087 14.8438C16.6579 14.8438 17.1745 15.0581 17.5659 15.4495L17.6483 15.5319L18.7592 16.6382L19.8608 15.5228L19.9387 15.4465C20.3269 15.0582 20.8436 14.8438 21.3928 14.8438C21.942 14.8438 22.4587 15.0574 22.847 15.4465C23.6384 16.2387 23.6302 17.5261 22.8302 18.3777L18.7515 22.7188L14.6713 18.3777C13.8705 17.5261 13.8631 16.2387 14.6545 15.4465C15.0436 15.0582 15.5595 14.8438 16.1087 14.8438Z" fill="#273751"/>
</g>
<defs>
<clipPath id="clip0">
<rect width="25" height="25" fill="white"/>
</clipPath>
</defs>
</svg>
