<svg width="25" height="25" viewBox="0 0 25 25" fill="none" xmlns="http://www.w3.org/2000/svg">
<path d="M12.5 1.5625C7.33032 1.5625 3.125 5.76782 3.125 10.9375C3.125 15.0818 5.83496 18.5913 9.58252 19.8242C10.022 21.0144 11.1633 21.875 12.5 21.875C13.8367 21.875 14.978 21.0144 15.4175 19.8242C19.165 18.5913 21.875 15.0879 21.875 10.9375C21.875 5.76782 17.6697 1.5625 12.5 1.5625ZM12.5 3.125C16.8274 3.125 20.3125 6.61011 20.3125 10.9375C20.3125 14.1724 18.3472 16.9189 15.5579 18.1091C15.2588 16.6931 13.9954 15.625 12.5 15.625C11.0046 15.625 9.74121 16.6931 9.44214 18.1091C6.65283 16.9189 4.6875 14.1724 4.6875 10.9375C4.6875 6.61011 8.17261 3.125 12.5 3.125ZM12.5 17.1875C13.3728 17.1875 14.0625 17.8772 14.0625 18.75C14.0625 19.6228 13.3728 20.3125 12.5 20.3125C11.6272 20.3125 10.9375 19.6228 10.9375 18.75C10.9375 17.8772 11.6272 17.1875 12.5 17.1875Z" fill="#273751"/>
</svg>
