<svg xmlns="http://www.w3.org/2000/svg" width="80.001" height="75.435" viewBox="0 0 80.001 75.435">
  <g id="noun_not_found_2503986" data-name="noun_not found_2503986" transform="translate(-10 -12.282)">
    <g id="Group_1054" data-name="Group 1054">
      <path id="Path_676" data-name="Path 676" d="M71.382,40.83a13.582,13.582,0,0,0,5.938-8.593h0a13.55,13.55,0,0,0-1.9-10.289,14.413,14.413,0,0,0-2.147-2.55,14.094,14.094,0,0,0-2.339-1.753,13.746,13.746,0,0,0-5.477-1.819,13.293,13.293,0,0,0-8.56,1.9l-.383.233A13.383,13.383,0,0,0,52.422,22.1l-.2.318A13.673,13.673,0,0,0,51.24,34.3,12.974,12.974,0,0,0,52.5,36.79a13.4,13.4,0,0,0,4.48,4.324,13.576,13.576,0,0,0,14.4-.284ZM54.182,35.7a11.034,11.034,0,0,1-1.075-2.116,11.677,11.677,0,0,1,.82-10.13l.186-.294a11.376,11.376,0,0,1,3.463-3.509l.367-.223A11.275,11.275,0,0,1,63.9,17.738a11.954,11.954,0,0,1,6.011,1.627,12.1,12.1,0,0,1,2,1.5,12.38,12.38,0,0,1,1.836,2.181A11.658,11.658,0,0,1,58,39.393,11.438,11.438,0,0,1,54.182,35.7Z" fill="#273751"/>
      <path id="Path_677" data-name="Path 677" d="M60.136,22.068a1,1,0,0,0,.391-.08,7.812,7.812,0,0,1,.77-.281,1,1,0,1,0-.586-1.912,10.1,10.1,0,0,0-.965.352,1,1,0,0,0,.391,1.921Z" fill="#273751"/>
      <path id="Path_678" data-name="Path 678" d="M64.653,38.445a1,1,0,0,0-1-1,8.048,8.048,0,0,1-5.441-13.96,1,1,0,1,0-1.357-1.469,10.048,10.048,0,0,0,6.8,17.429A1,1,0,0,0,64.653,38.445Z" fill="#273751"/>
      <path id="Path_679" data-name="Path 679" d="M89.839,59.413,83.518,49.66l.29-.253a1.981,1.981,0,0,0-.021-2.987,1.048,1.048,0,0,0-.176-.121L77.178,42.83a.985.985,0,0,0-.879-.015l-.6-.927c-.01-.016-.027-.024-.038-.039a17.091,17.091,0,0,0-9.81-29.458A16.84,16.84,0,0,0,55.1,14.773c-.149.087-.3.174-.446.273-.028.019-.056.04-.082.061a16.766,16.766,0,0,0-5.052,5.125c-.106.159-.2.305-.258.417a17.008,17.008,0,0,0-2.345,7.393,16.77,16.77,0,0,0,1.1,7.486,15.75,15.75,0,0,0,1.592,3.134A17.1,17.1,0,0,0,53.7,43.05H37.389a1,1,0,0,0-.57.178L22.878,52.9H21.007a1,1,0,0,0-.621.216l-9.8,7.761a1.007,1.007,0,0,0-.087.078,1.72,1.72,0,0,0,1.051,2.925L22.06,65.1V76.433a4.225,4.225,0,0,0,3.353,4.127l32.512,7.133a.945.945,0,0,0,.578-.052.972.972,0,0,0,.1-.057.985.985,0,0,0,.16-.089c.018-.014.025-.037.042-.053s.044-.024.062-.043L73.333,71.936a7.976,7.976,0,0,0,2.186-5.513v-9.4l5.325,8.221a1,1,0,0,0,.63.435,1.013,1.013,0,0,0,.209.022,1,1,0,0,0,.544-.161L89.544,60.8A1,1,0,0,0,89.839,59.413ZM82.418,47.964l-.036-.056.062.033ZM76.173,46.3l-1.735,1.12-2.05-3.162c.294-.167.586-.338.872-.523.342-.221.612-.414.86-.6ZM73.883,55.4c-.006.005-.014.008-.02.013l-6.028,5.249L59.7,53.86l9.44-8.194c.489-.152.971-.332,1.448-.533.009.016.01.034.02.049L72.92,48.75a3.74,3.74,0,0,0-.048,4.191l1.385,2.138Zm-22.6-17.835a13.828,13.828,0,0,1-1.4-2.757,14.816,14.816,0,0,1-.971-6.616A15.08,15.08,0,0,1,51,21.641c.052-.095.112-.189.2-.316a14.815,14.815,0,0,1,4.534-4.584,1,1,0,0,0,.1-.072c.093-.06.188-.115.3-.178a14.874,14.874,0,0,1,9.5-2.113,15.163,15.163,0,0,1,8.655,3.979,15,15,0,0,1,2.354,2.82l0,.006a15.136,15.136,0,0,1-3.491,20.175,11.15,11.15,0,0,1-.976.694,14.683,14.683,0,0,1-3.832,1.775,15.09,15.09,0,0,1-17.058-6.257ZM37.7,45.05H57.157a17.05,17.05,0,0,0,6.805,1.43q.622,0,1.243-.046L57.761,52.9H26.389ZM21.355,54.9h34.65l-7.294,8.769-1.916,2.3-34.363-4Zm2.7,21.537V65.485l23.048,2.534h.008c.034,0,.068.006.1.006.011,0,.021-.007.033-.007a.969.969,0,0,0,.383-.085l.02-.011a.993.993,0,0,0,.333-.257l9.152-11V85.474L25.827,78.6A2.222,2.222,0,0,1,24.06,76.433Zm47.817-5.869L59.138,84.184V56l8.067,6.751a1,1,0,0,0,.308.175.973.973,0,0,0,.137.024,1.006,1.006,0,0,0,.2.034h0a1,1,0,0,0,.275-.049c.022-.007.046,0,.068-.013a.986.986,0,0,0,.309-.183l5.016-4.364v8.051A5.986,5.986,0,0,1,71.877,70.565Zm10.1-7.243L74.546,51.847A1.748,1.748,0,0,1,75.07,49.4a.912.912,0,0,0,.1-.078l2.549-1.646a1.781,1.781,0,0,1,2.472.533l7.426,11.453Z" fill="#273751"/>
    </g>
  </g>
</svg>
