<svg width="25" height="25" viewBox="0 0 25 25" fill="none" xmlns="http://www.w3.org/2000/svg">
<path d="M14.8438 3.9062C13.2599 3.91841 11.676 4.53487 10.4736 5.73726L5.71289 10.498C5.39551 10.8154 4.91028 10.8184 4.58984 10.498L4.24805 10.1562L3.125 11.2548L9.10645 17.2119C7.94983 17.3492 7.03125 18.338 7.03125 19.5312C7.03125 20.816 8.09021 21.875 9.375 21.875C10.5591 21.875 11.5448 20.9716 11.6943 19.8242L13.7451 21.875L14.8438 20.7763L14.502 20.4345C14.1846 20.1171 14.2059 19.6319 14.5264 19.3115L19.3115 14.5751C20.5231 13.3636 21.0938 11.734 21.0938 10.1562C21.0938 9.024 20.816 7.8857 20.2148 6.88472C20.7397 6.63142 21.0938 6.08821 21.0938 5.4687C21.0938 4.60506 20.3949 3.9062 19.5312 3.9062C18.9026 3.9062 18.3624 4.27547 18.1152 4.80952C17.1143 4.20528 15.976 3.89705 14.8438 3.9062ZM14.8438 5.4687C16.0583 5.45955 17.2668 5.91426 18.1885 6.83589C19.1071 7.75447 19.5312 8.92024 19.5312 10.1562C19.5312 11.3525 19.0826 12.5579 18.1885 13.4521L13.4033 18.2128C13.205 18.4112 13.0524 18.634 12.9395 18.872L6.12793 12.0605C6.37512 11.9476 6.61011 11.798 6.81152 11.5966L11.5723 6.83589C12.4756 5.93257 13.6505 5.47786 14.8438 5.4687ZM9.375 18.75C9.81445 18.75 10.1562 19.0918 10.1562 19.5312C10.1562 19.9707 9.81445 20.3125 9.375 20.3125C8.93555 20.3125 8.59375 19.9707 8.59375 19.5312C8.59375 19.0918 8.93555 18.75 9.375 18.75Z" fill="#273751"/>
</svg>
