<svg width="25" height="25" viewBox="0 0 25 25" fill="none" xmlns="http://www.w3.org/2000/svg">
<path d="M7.03125 3.90625V14.8438H8.59375V5.46875H19.5312V11.7188H21.0938V3.90625H7.03125ZM10.1562 8.59375V10.1562H11.7188V8.59375H10.1562ZM13.2812 8.59375V10.1562H17.9688V8.59375H13.2812ZM10.1562 11.7188V13.2812H11.7188V11.7188H10.1562ZM13.2812 11.7188V13.2812H14.4531V11.7188H13.2812ZM15.625 12.5V14.0625H16.4062V15.625C16.4062 16.8762 17.0319 18.0481 17.9688 18.75C17.0319 19.4519 16.4062 20.6238 16.4062 21.875V23.4375H15.625V25H25V23.4375H24.2188V21.875C24.2188 20.6238 23.5931 19.4519 22.6562 18.75C23.5931 18.0481 24.2188 16.8762 24.2188 15.625V14.0625H25V12.5H15.625ZM17.9688 14.0625H22.6562V15.625C22.6562 16.9525 21.64 17.9688 20.3125 17.9688C18.985 17.9688 17.9688 16.9525 17.9688 15.625V14.0625ZM3.90625 15.625V17.9688C3.90625 19.693 5.30701 21.0938 7.03125 21.0938H15.2985C15.387 20.5475 15.567 20.0226 15.8234 19.5312H7.03125C6.17065 19.5312 5.46875 18.8293 5.46875 17.9688V17.1875H15.4907C15.3259 16.687 15.2344 16.1591 15.2344 15.625H3.90625ZM18.75 15.625C18.75 15.625 18.75 17.1875 20.3125 17.1875C21.875 17.1875 21.875 15.625 21.875 15.625H18.75ZM20.3125 19.5312C21.64 19.5312 22.6562 20.5475 22.6562 21.875V23.4375H21.875C21.875 22.5769 21.1731 21.875 20.3125 21.875C19.4519 21.875 18.75 22.5769 18.75 23.4375H17.9688V21.875C17.9688 20.5475 18.985 19.5312 20.3125 19.5312Z" fill="#273751"/>
</svg>
