<svg width="25" height="25" viewBox="0 0 25 25" fill="none" xmlns="http://www.w3.org/2000/svg">
<path d="M12.5 3.125C10.7422 3.125 9.56421 3.8147 8.50525 4.39148C7.44324 4.96826 6.46973 5.46875 4.6875 5.46875H3.90625V6.25C3.90625 12.2803 5.94177 16.2018 8.00476 18.576C10.0677 20.9503 12.207 21.817 12.207 21.817L12.5 21.936L12.7869 21.8201C12.7869 21.8201 14.9323 20.9625 16.9952 18.5913C19.0582 16.2231 21.0938 12.3016 21.0938 6.25V5.46875H20.3125C18.5394 5.46875 17.5659 4.96826 16.5039 4.39148C15.4388 3.8147 14.2578 3.125 12.5 3.125ZM12.5 4.6875C13.8672 4.6875 14.6606 5.16968 15.7593 5.76477C16.6809 6.26526 17.8986 6.73828 19.4794 6.90308C19.3298 12.1918 17.5812 15.5426 15.8173 17.5659C14.2151 19.4061 12.8754 20.0439 12.5 20.2118C12.1277 20.0409 10.7849 19.3939 9.18274 17.5507C7.41882 15.5212 5.67017 12.1704 5.52368 6.90308C7.10754 6.73828 8.32825 6.26526 9.24988 5.76477C10.3455 5.16968 11.1328 4.6875 12.5 4.6875ZM12.5 7.8125C11.2061 7.8125 10.1562 8.8623 10.1562 10.1562C10.1562 11.0718 10.6934 11.9049 11.5265 12.2833L10.9375 16.4062H14.0625L13.4735 12.2833C14.3066 11.9049 14.8438 11.0718 14.8438 10.1562C14.8438 8.8623 13.7939 7.8125 12.5 7.8125Z" fill="#273751"/>
</svg>
