<svg width="26" height="25" viewBox="0 0 26 25" fill="none" xmlns="http://www.w3.org/2000/svg">
<path d="M13.1157 2.34375C10.1128 2.34375 7.64697 4.80957 7.64697 7.8125V10.1562H5.30322V22.6562H20.9282V10.1562H18.5845V7.8125C18.5845 4.80957 16.1187 2.34375 13.1157 2.34375ZM13.1157 3.90625C15.2672 3.90625 17.022 5.66101 17.022 7.8125V10.1562H9.20947V7.8125C9.20947 5.66101 10.9642 3.90625 13.1157 3.90625ZM6.86572 11.7188H19.3657V21.0938H6.86572V11.7188ZM13.1157 12.5C10.9673 12.5 9.20947 14.2578 9.20947 16.4062C9.20947 18.5547 10.9673 20.3125 13.1157 20.3125C15.2642 20.3125 17.022 18.5547 17.022 16.4062C17.022 14.2578 15.2642 12.5 13.1157 12.5ZM13.1157 14.0625C14.4188 14.0625 15.4595 15.1031 15.4595 16.4062C15.4595 17.7094 14.4188 18.75 13.1157 18.75C11.8126 18.75 10.772 17.7094 10.772 16.4062C10.772 15.1031 11.8126 14.0625 13.1157 14.0625ZM13.1157 14.8438C12.2551 14.8438 11.5532 15.5457 11.5532 16.4062C11.5532 17.2668 12.2551 17.9688 13.1157 17.9688C13.9763 17.9688 14.6782 17.2668 14.6782 16.4062C14.6782 16.2506 14.6843 16.098 14.605 15.9424C14.4493 16.2537 14.2083 16.4062 13.897 16.4062C13.427 16.4062 13.1157 16.095 13.1157 15.625C13.1157 15.3137 13.2683 15.0726 13.5796 14.917C13.424 14.8376 13.2714 14.8438 13.1157 14.8438Z" fill="#273751"/>
</svg>
