<svg width="50" height="50" viewBox="0 0 50 50" fill="none" xmlns="http://www.w3.org/2000/svg">
<path d="M7.5 31.1428C7.5 27.553 10.4101 24.6428 14 24.6428H21.4286C25.0184 24.6428 27.9286 27.553 27.9286 31.1428V34C27.9286 35.3807 26.8093 36.5 25.4286 36.5H10C8.61929 36.5 7.5 35.3807 7.5 34V31.1428Z" stroke="#273751"/>
<circle cx="17.3571" cy="17.3571" r="4.85714" stroke="#273751"/>
<path d="M34.8824 33.4285H41.2689C42.3828 33.4285 43.2857 32.4691 43.2857 31.2857V29.1428C43.2857 26.3814 41.1788 24.1428 38.5798 24.1428H31.8571" stroke="#273751"/>
<circle cx="35.7857" cy="18.7857" r="3.42857" stroke="#273751"/>
<path d="M29.5036 28.7893C29.3083 28.9845 29.3083 29.3011 29.5036 29.4964L32.6856 32.6784C32.8808 32.8736 33.1974 32.8736 33.3927 32.6784C33.5879 32.4831 33.5879 32.1665 33.3927 31.9712L30.5642 29.1428L33.3927 26.3144C33.5879 26.1191 33.5879 25.8026 33.3927 25.6073C33.1974 25.412 32.8808 25.412 32.6856 25.6073L29.5036 28.7893ZM35.5714 28.6428H29.8571V29.6428H35.5714V28.6428Z" fill="#273751"/>
</svg>
