<svg width="25" height="25" viewBox="0 0 25 25" fill="none" xmlns="http://www.w3.org/2000/svg">
<path d="M12.5 6.25C9.60083 6.25 6.96411 6.78101 4.99268 7.69043C4.00391 8.14819 3.17383 8.69751 2.56348 9.36279C1.95923 10.0342 1.5625 10.8398 1.5625 11.7188C1.5625 13.0615 2.45361 14.1968 3.72315 15.0391C4.80957 15.7593 6.22559 16.3086 7.84912 16.6748L9.8938 20.3125H15.1062L17.157 16.6748C18.7744 16.3086 20.1904 15.7593 21.283 15.0391C22.5464 14.1968 23.4375 13.0615 23.4375 11.7188C23.4375 10.8398 23.0408 10.0342 22.4365 9.36279C21.8262 8.69751 20.9961 8.14819 20.0134 7.69043C18.0359 6.78101 15.3992 6.25 12.5 6.25ZM12.5 7.8125C15.21 7.8125 17.6514 8.32519 19.3542 9.11255C20.2026 9.50317 20.8618 9.96704 21.283 10.4248C21.7041 10.8765 21.875 11.2976 21.875 11.7188C21.875 12.3596 21.4294 13.0676 20.4163 13.739C19.5068 14.3433 18.1824 14.856 16.6199 15.1917L15.1062 12.5H9.8938L8.38013 15.1917C6.81763 14.856 5.49316 14.3433 4.58374 13.739C3.57056 13.0676 3.125 12.3596 3.125 11.7188C3.125 11.2976 3.2959 10.8765 3.71704 10.4248C4.13818 9.96704 4.79736 9.50317 5.64575 9.11255C7.34863 8.32519 9.79004 7.8125 12.5 7.8125ZM10.8093 14.0625H14.1907L15.509 16.4062L14.1907 18.75H10.8093L9.49097 16.4062L10.8093 14.0625Z" fill="#273751"/>
</svg>
