<svg width="25" height="25" viewBox="0 0 25 25" fill="none" xmlns="http://www.w3.org/2000/svg">
<path d="M12.5 3.125C10.7422 3.125 9.55811 3.81775 8.49609 4.39453C7.43408 4.97131 6.46973 5.46875 4.6875 5.46875H3.90625V6.25C3.90625 12.2803 5.94482 16.2048 8.00781 18.5791C10.0708 20.9534 12.207 21.8262 12.207 21.8262L12.5 21.9238L12.793 21.8262C12.793 21.8262 14.9292 20.9717 16.9922 18.6035C19.0552 16.2354 21.0938 12.3016 21.0938 6.25V5.46875H20.3125C18.5394 5.46875 17.5659 4.97131 16.5039 4.39453C15.4419 3.81775 14.2578 3.125 12.5 3.125ZM12.5 4.6875C13.8672 4.6875 14.6515 5.16663 15.7471 5.76172C16.6718 6.26526 17.8986 6.74744 19.4824 6.90918C19.3329 12.1948 17.5842 15.5548 15.8203 17.5781C14.2212 19.4122 12.8784 20.0226 12.5 20.1904C12.1185 20.0195 10.7788 19.3939 9.17969 17.5537C7.41577 15.5243 5.66711 12.1704 5.51758 6.90918C7.10754 6.74744 8.32825 6.26526 9.25293 5.76172C10.3485 5.16663 11.1328 4.6875 12.5 4.6875ZM16.626 8.81348L11.7188 13.7207L9.15527 11.1572L8.03223 12.2803L11.1572 15.4053L11.7188 15.9424L12.2803 15.4053L17.749 9.93652L16.626 8.81348Z" fill="#273751"/>
</svg>
