<svg width="26" height="25" viewBox="0 0 26 25" fill="none" xmlns="http://www.w3.org/2000/svg">
<path d="M10.9185 2.34375L10.7964 2.97852L10.3325 5.29785C9.58789 5.59082 8.9165 6.00281 8.30615 6.49414L6.03564 5.71289L5.42529 5.51758L5.10791 6.0791L3.54541 8.76465L3.22803 9.32617L3.69189 9.74121L5.44971 11.2793C5.38562 11.6791 5.30322 12.0789 5.30322 12.5C5.30322 12.9211 5.38562 13.3209 5.44971 13.7207L3.69189 15.2588L3.22803 15.6738L3.54541 16.2354L5.10791 18.9209L5.42529 19.4824L6.03564 19.2871L8.30615 18.5059C8.9165 18.9972 9.58789 19.4092 10.3325 19.7021L10.7964 22.0215L10.9185 22.6562H15.313L15.4351 22.0215L15.8989 19.7021C16.6436 19.4092 17.3149 18.9972 17.9253 18.5059L20.1958 19.2871L20.8062 19.4824L21.1235 18.9209L22.686 16.2354L23.0034 15.6738L22.5396 15.2588L20.7817 13.7207C20.8458 13.3209 20.9282 12.9211 20.9282 12.5C20.9282 12.0789 20.8458 11.6791 20.7817 11.2793L22.5396 9.74121L23.0034 9.32617L22.686 8.76465L21.1235 6.0791L20.8062 5.51758L20.1958 5.71289L17.9253 6.49414C17.3149 6.00281 16.6436 5.59082 15.8989 5.29785L15.4351 2.97852L15.313 2.34375H10.9185ZM12.188 3.90625H14.0435L14.4341 5.93262L14.5317 6.39648L14.9712 6.54297C15.8593 6.82068 16.6649 7.29065 17.3394 7.91016L17.6812 8.22754L18.1206 8.08105L20.0981 7.39746L21.0259 8.98438L19.4634 10.376L19.0972 10.6689L19.2192 11.1328C19.3199 11.5784 19.3657 12.0331 19.3657 12.5C19.3657 12.9669 19.3199 13.4216 19.2192 13.8672L19.1216 14.3311L19.4634 14.624L21.0259 16.0156L20.0981 17.6025L18.1206 16.9189L17.6812 16.7725L17.3394 17.0898C16.6649 17.7094 15.8593 18.1793 14.9712 18.457L14.5317 18.6035L14.4341 19.0674L14.0435 21.0938H12.188L11.7974 19.0674L11.6997 18.6035L11.2603 18.457C10.3722 18.1793 9.56653 17.7094 8.89209 17.0898L8.55029 16.7725L8.11084 16.9189L6.1333 17.6025L5.20557 16.0156L6.76807 14.624L7.13428 14.3311L7.01221 13.8672C6.9115 13.4216 6.86572 12.9669 6.86572 12.5C6.86572 12.0331 6.9115 11.5784 7.01221 11.1328L7.13428 10.6689L6.76807 10.376L5.20557 8.98438L6.1333 7.39746L8.11084 8.08105L8.55029 8.22754L8.89209 7.91016C9.56653 7.29065 10.3722 6.82068 11.2603 6.54297L11.6997 6.39648L11.7974 5.93262L12.188 3.90625ZM13.1157 8.59375C10.9673 8.59375 9.20947 10.3516 9.20947 12.5C9.20947 14.6484 10.9673 16.4062 13.1157 16.4062C15.2642 16.4062 17.022 14.6484 17.022 12.5C17.022 10.3516 15.2642 8.59375 13.1157 8.59375ZM13.1157 10.1562C14.4188 10.1562 15.4595 11.1969 15.4595 12.5C15.4595 13.8031 14.4188 14.8438 13.1157 14.8438C11.8126 14.8438 10.772 13.8031 10.772 12.5C10.772 11.1969 11.8126 10.1562 13.1157 10.1562Z" fill="#273751"/>
</svg>
