<svg width="26" height="25" viewBox="0 0 26 25" fill="none" xmlns="http://www.w3.org/2000/svg">
<path d="M7.25635 3.90625L7.01221 4.22363L4.52197 7.54395V21.0938H21.7095V7.54395L19.2192 4.22363L18.9751 3.90625H7.25635ZM8.0376 5.46875H12.3345V7.03125H6.86572L8.0376 5.46875ZM13.897 5.46875H18.1938L19.3657 7.03125H13.897V5.46875ZM6.08447 8.59375H20.147V19.5312H6.08447V8.59375ZM10.6255 10.1562C10.1952 10.1959 9.87781 10.5804 9.91748 11.0107C9.95715 11.441 10.3417 11.7584 10.772 11.7188H15.4595C15.7402 11.7218 16.0027 11.5753 16.1461 11.3312C16.2865 11.087 16.2865 10.788 16.1461 10.5438C16.0027 10.2997 15.7402 10.1532 15.4595 10.1562H10.772C10.7476 10.1562 10.7231 10.1562 10.6987 10.1562C10.6743 10.1562 10.6499 10.1562 10.6255 10.1562Z" fill="#273751"/>
</svg>
