<svg width="96" height="96" viewBox="0 0 96 96" fill="none" xmlns="http://www.w3.org/2000/svg">
<path d="M65.6513 68.4985C66.3754 69.3291 66.2964 69.4082 65.4757 68.6743C64.6551 67.9404 61.4911 65.0929 60.2711 63.9767C59.0512 62.8605 57.3924 61.34 56.5849 60.593C55.7774 59.8459 52.6617 56.9544 51.4549 55.825C50.2481 54.6957 49.6995 53.5839 50.292 53.3466C50.8844 53.1093 51.4286 55.0648 51.5602 57.6927C51.6919 60.3205 51.8674 63.9064 51.9464 65.6597C52.0254 67.4131 52.3194 74.1849 52.4203 76.8128C52.5213 79.4406 52.6749 83.7428 52.7626 86.375C52.8504 89.0073 52.0868 90.8178 51.0643 90.4047C50.0418 89.9916 50.7176 88.102 52.5608 86.2036C54.4039 84.3053 60.7977 77.7708 62.654 75.8856C64.5103 74.0003 70.9349 67.4922 72.7999 65.6114C74.665 63.7306 80.7648 57.6751 82.1735 56.2733C83.5822 54.8714 85.8948 52.5951 87.3079 51.2021C88.721 49.8091 90.2174 49.5059 90.6343 50.5254C91.0512 51.5449 89.1905 52.2831 86.5048 52.2084L77.2892 51.8701L69.2585 51.5449C67.5032 51.4702 60.8065 51.1054 58.1998 50.9912C55.5931 50.8769 53.6579 50.2793 53.8948 49.708C54.1318 49.1367 55.2552 49.6509 56.3874 50.8506L59.8235 54.4847C60.5827 55.2801 63.4746 58.4002 64.5981 59.6086C65.7215 60.8171 67.2311 62.4782 67.9903 63.2955C68.7495 64.1129 69.9914 65.6817 69.1532 64.9654C68.315 64.2491 65.0983 61.4499 63.8564 60.3777C62.6145 59.3054 60.925 57.7981 60.1044 57.0687C59.2837 56.3392 56.1066 53.5092 54.8778 52.4062L51.5032 49.3916C50.88 48.8335 51.0643 48.3633 51.942 48.3501L58.2525 48.2491C60.8855 48.2051 64.4181 48.1524 66.1516 48.1348C67.885 48.1172 74.6694 48.0557 77.3507 48.0425H86.5663H93.9782C95.3693 48.0425 95.7072 48.8819 94.7286 49.8926L90.4324 54.3309C89.0545 55.7547 86.7901 58.0838 85.4033 59.5032C84.0166 60.9226 81.3616 63.6295 79.501 65.5147C77.6403 67.3999 71.2245 73.9081 69.3595 75.7845C67.4944 77.6609 61.0215 84.1031 59.1302 85.9663C57.2388 87.8296 51.4593 93.5379 50.4324 94.5398C49.4055 95.5418 48.5805 95.2034 48.5805 93.7928V86.4453C48.5805 83.8087 48.5805 79.5065 48.6024 76.8787C48.6244 74.2508 48.6419 70.6562 48.6551 68.9028C48.6683 67.1495 48.778 60.3689 48.8263 57.741C48.8745 55.1131 48.9184 52.2612 48.9316 51.413C48.9447 50.5649 49.4099 50.3716 49.9628 50.9736L52.9864 54.3046C54.0967 55.5262 55.6195 57.1917 56.3479 58.0091C57.0764 58.8264 59.9245 61.9948 61.0215 63.2252C62.1186 64.4557 64.914 67.6724 65.6513 68.4985Z" fill="white"/>
<path d="M26.5114 29.9946C25.7742 29.1773 25.8532 29.1158 26.687 29.8145C27.5208 30.5132 30.7374 33.33 31.975 34.4154C33.2125 35.5008 34.8976 36.9993 35.7183 37.7332L40.936 42.4001L44.2844 45.4059C44.8943 45.9552 44.7013 46.421 43.8455 46.4429L37.5307 46.588C34.8976 46.6539 31.3211 46.7286 29.5658 46.7637C27.8104 46.7989 21.0479 46.9044 18.4193 46.9351C15.7906 46.9659 11.4944 47.0054 8.86579 47.023L1.52843 47.067C0.119761 47.067 -0.226919 46.2452 0.769242 45.2169L5.92119 39.8909C7.75992 37.9925 14.1538 31.458 16.0145 29.5728C17.8751 27.6876 24.2909 21.1838 26.156 19.303C28.021 17.4222 34.1209 11.3667 35.5295 9.96489C36.9382 8.56307 39.2509 6.28676 40.664 4.89373L45.0523 0.56962C46.0792 -0.419124 46.9218 -0.0895423 46.9218 1.31667C46.9218 2.72289 46.9613 6.05385 46.9832 8.73884L47.0271 17.9671C47.0271 20.6521 47.0271 24.2775 47.0271 26.0177C47.0271 27.7579 46.9657 34.4901 46.9393 37.1004C46.913 39.7107 46.8823 42.5583 46.8735 43.424C46.8647 44.2897 46.3996 44.483 45.8422 43.8634L42.8055 40.5061C41.6996 39.28 40.1725 37.6102 39.4484 36.7972C38.7243 35.9842 35.885 32.8027 34.7879 31.5634C33.6908 30.3242 32.2032 28.6412 31.4791 27.8106C30.755 26.9801 29.535 25.3761 30.3557 26.1144C31.1763 26.8526 34.3315 29.7046 35.5471 30.8164C36.7627 31.9282 38.4215 33.453 39.229 34.2089L44.3502 38.9812C45.557 40.1106 46.0792 41.2312 45.5087 41.4729C44.9382 41.7146 44.3502 39.7766 44.1922 37.1663C44.0342 34.556 43.8411 31.0141 43.7534 29.2564C43.6656 27.4986 43.3145 20.7356 43.196 18.055L42.8011 8.82673C42.687 6.14174 43.433 4.27851 44.4555 4.6828C45.478 5.08708 45.1796 6.58997 43.7972 8.01816C42.4149 9.44634 40.1725 11.7754 38.7857 13.1816C37.399 14.5878 34.744 17.3211 32.879 19.2063C31.0139 21.0916 24.6069 27.5953 22.7418 29.4761C20.8768 31.3569 14.4039 37.7947 12.5125 39.6536C10.6211 41.5124 5.3156 45.5772 4.90309 44.5621C4.49058 43.547 6.28981 42.7648 8.91845 42.8395C11.5471 42.9142 15.8389 43.0329 18.4676 43.1208L26.4237 43.3844C28.179 43.446 34.9415 43.7404 37.5658 43.8546C40.19 43.9689 42.1472 44.5314 41.9146 45.0983C41.682 45.6651 40.563 45.151 39.4308 43.9469L35.9991 40.3083C35.2443 39.5086 32.3524 36.3885 31.2333 35.1757C30.1143 33.9628 27.2531 30.812 26.5114 29.9946Z" fill="white"/>
<path d="M68.8987 29.8145C69.7237 29.085 69.8027 29.1641 69.0742 29.9946C68.3458 30.8252 65.5196 34.0023 64.4138 35.2284C63.3079 36.4544 61.7808 38.1243 61.0567 38.9373L56.326 44.1007C55.207 45.3136 54.0967 45.8585 53.8554 45.2784C53.614 44.6984 55.5624 44.1315 58.1867 43.9601C60.8109 43.7887 64.3875 43.6217 66.1384 43.5206C67.8894 43.4196 74.6475 43.0812 77.2761 42.9845C79.9047 42.8879 84.1966 42.6901 86.8208 42.589C89.4451 42.488 91.2619 43.2438 90.8581 44.2633C90.4544 45.2828 88.5586 44.628 86.6497 42.7956C84.7407 40.9631 78.1801 34.6263 76.2887 32.7807C74.3973 30.935 67.863 24.5368 65.9804 22.6735C64.0978 20.8103 58.0068 14.7636 56.6025 13.3398C55.1982 11.916 52.9075 9.6309 51.512 8.22029C50.1165 6.80968 49.8005 5.31558 50.8142 4.89811C51.8279 4.48064 52.5959 6.33509 52.5213 9.02008L52.2317 18.2484C52.1395 20.9333 52.0122 24.5543 51.9508 26.2945C51.8894 28.0347 51.5822 34.7582 51.4593 37.3685C51.3364 39.9787 50.7703 41.9211 50.1998 41.6882C49.6293 41.4553 50.134 40.3259 51.3276 39.1834L54.9349 35.7206C55.7292 34.9603 58.8274 32.0468 60.0298 30.9131C61.2322 29.7793 62.8822 28.2457 63.6897 27.4986C64.4972 26.7516 66.0638 25.486 65.3529 26.3253C64.642 27.1646 61.8861 30.4033 60.8021 31.6557C59.7182 32.9081 58.2437 34.6044 57.5196 35.4305C56.7956 36.2567 54.0089 39.4514 52.8943 40.7038L49.9014 44.0963C49.3485 44.7247 48.8789 44.5358 48.8614 43.6569C48.8438 42.778 48.778 39.9524 48.721 37.3377C48.6639 34.723 48.5981 31.1855 48.5674 29.4277C48.5366 27.67 48.4401 20.8938 48.4138 18.2088L48.3479 8.98053C48.3479 6.29554 48.326 2.95578 48.3216 1.55835C48.3172 0.160929 49.1466 -0.199413 50.1691 0.79812L54.6189 5.07389C56.0495 6.44934 58.3885 8.69928 59.8148 10.0835C61.241 11.4678 63.953 14.1044 65.8488 15.9545C67.7446 17.8045 74.2745 24.1984 76.1571 26.0616C78.0397 27.9249 84.495 34.3803 86.382 36.2523C88.269 38.1243 93.987 43.9074 94.992 44.9181C95.9969 45.9288 95.6634 46.7725 94.2547 46.7813L86.9174 46.8209C84.2843 46.8209 79.9925 46.8472 77.3639 46.8472H69.3946C67.6392 46.8472 60.8767 46.7637 58.2481 46.733L51.9289 46.6627C51.0819 46.6627 50.8844 46.1881 51.49 45.6344L54.8208 42.5715L58.4983 39.1834C59.3057 38.4363 62.4478 35.5843 63.6897 34.4769C64.9316 33.3695 68.0737 30.5439 68.8987 29.8145Z" fill="white"/>
<path d="M30.066 68.7183C29.2542 69.4609 29.1883 69.3862 29.8861 68.5469C30.5838 67.7076 33.3661 64.4733 34.45 63.2252C35.5339 61.9772 37.0128 60.281 37.7413 59.4548L42.3754 54.1815L45.3595 50.8198C45.9037 50.2046 46.3688 50.3804 46.3952 51.2592C46.4215 52.1381 46.5005 54.9506 46.5751 57.5828C46.6497 60.2151 46.7506 63.8009 46.7901 65.5543C46.8296 67.3077 46.9832 74.0839 47.0271 76.7161C47.071 79.3484 47.1368 83.6505 47.1675 86.2828C47.1982 88.915 47.2377 92.2196 47.2509 93.6302C47.264 95.0408 46.439 95.388 45.4078 94.3992L40.0627 89.271C38.145 87.4473 31.5976 81.0754 29.7018 79.2253C27.806 77.3753 21.2761 70.9814 19.3935 69.1182C17.5109 67.2549 11.4198 61.1818 10.0155 59.78C8.61125 58.3782 6.32052 56.0755 4.92502 54.6649C3.52952 53.2543 1.5723 51.2812 0.576139 50.2705C-0.420022 49.2598 -0.0908924 48.4292 1.30461 48.4073L8.71657 48.3062L17.9322 48.2095L25.9717 48.1568C27.727 48.1568 34.4324 48.1568 37.0435 48.1875C39.6546 48.2183 42.4895 48.1875 43.354 48.2139C44.2185 48.2403 44.416 48.6841 43.7928 49.2466L40.4577 52.3227L36.7758 55.702C35.964 56.4491 32.8263 59.2966 31.5756 60.3996L27.8455 63.735C27.0205 64.4645 25.4275 65.6949 26.156 64.8732C26.8844 64.0514 29.7149 60.8698 30.8208 59.6438C31.9267 58.4177 33.4538 56.7523 34.1911 55.9393L38.9305 50.7803C40.0496 49.5674 41.1642 49.0225 41.41 49.6113C41.6557 50.2002 39.7248 50.7803 37.1181 50.9297C34.5114 51.0791 30.9744 51.3164 29.2191 51.4174C27.4637 51.5185 20.71 51.8964 18.0331 52.0371L8.8175 52.4765C6.13621 52.5995 4.27554 51.8657 4.67488 50.8418C5.07422 49.8179 6.57505 50.1079 8.00566 51.479C9.43627 52.85 11.7753 55.1088 13.2015 56.4886C14.6277 57.8685 17.3617 60.5446 19.275 62.3991C21.1883 64.2535 27.7007 70.643 29.5833 72.5063C31.4659 74.3695 37.9212 80.8205 39.8038 82.6969C41.6864 84.5733 45.7588 89.8642 44.7451 90.2861C43.7314 90.7079 42.9503 88.9062 42.9898 86.274C43.0293 83.6417 43.1478 79.3396 43.218 76.7117C43.2882 74.0839 43.3891 70.4936 43.4418 68.7402C43.4944 66.9869 43.749 60.2107 43.8499 57.5828C43.9508 54.9549 44.4994 52.9906 45.0699 53.2192C45.6404 53.4477 45.1269 54.577 43.9333 55.7152L40.3173 59.1692C39.523 59.9294 36.4204 62.8429 35.2136 63.9723C34.0068 65.1017 30.8779 67.9756 30.066 68.7183Z" fill="white"/>
</svg>
