<svg width="26" height="25" viewBox="0 0 26 25" fill="none" xmlns="http://www.w3.org/2000/svg">
<path d="M12.8079 3.90625C9.7216 3.90625 7.20443 6.36292 7.20443 9.375C7.20443 11.2579 8.18941 12.9303 9.68095 13.916C6.82607 15.1123 4.80295 17.8772 4.80295 21.0938H6.40393C6.40393 18.8355 7.62656 16.8701 9.45581 15.7715C9.99364 17.0593 11.3038 17.9688 12.8079 17.9688C14.3119 17.9688 15.6221 17.0593 16.1599 15.7715C17.9892 16.8701 19.2118 18.8355 19.2118 21.0938H20.8128C20.8128 17.8772 18.7897 15.1123 15.9348 13.916C17.4263 12.9303 18.4113 11.2579 18.4113 9.375C18.4113 6.36292 15.8942 3.90625 12.8079 3.90625ZM12.8079 5.46875C15.028 5.46875 16.8103 7.20825 16.8103 9.375C16.8103 11.5417 15.028 13.2813 12.8079 13.2813C10.5878 13.2813 8.80541 11.5417 8.80541 9.375C8.80541 7.20825 10.5878 5.46875 12.8079 5.46875ZM12.8079 14.8438C13.4645 14.8438 14.0899 14.9353 14.684 15.1123C14.4057 15.8661 13.6803 16.4063 12.8079 16.4063C11.9355 16.4063 11.21 15.8661 10.9317 15.1123C11.5258 14.9353 12.1512 14.8438 12.8079 14.8438Z" fill="#273751"/>
</svg>
